# xmcd
#
# Track frame offsets:
#	150
#	11622
#	30386
#	53836
#	70426
#	99592
#	114457
#	137969
#	157557
#	183268
#	200182
#	216746
#	238800
#	251607
#	265481
#
# Disc length: 4183 seconds
#
# Revision: 1
# Processed by: cddbd v1.5.2PL0 Copyright (c) Steve Scherf et al.
# Submitted via: audiograbber 1.83.01
#
DISCID=de10550f
DTITLE=Blue Rose - Blue Rose Nuggets 63
DYEAR=2013
DGENRE=Country
TTITLE0=Chris Knight - Banging Away
TTITLE1=The Dirty  Guv´Nahs - Don't Give Up On Me
TTITLE2=The Wynntown Marshals - Driveaway
TTITLE3=Map Of Wyoming - Hilltop
TTITLE4=American Aquarium - Jacksonville
TTITLE5=Stacie Collins - Carry Me Away
TTITLE6=Alejandro Escovedo - Don't Need You
TTITLE7=Elliott Murphy - Little Big Man
TTITLE8=The Resentments - Trouble Find Me
TTITLE9=The Hooblers - Find Again
TTITLE10=Micky and The Motorcars - Odessa Show
TTITLE11=The Band Of Heathers - Shotgun
TTITLE12=Hank Shizzoe - I Still Want You
TTITLE13=Cody Canada and The Departed - If You're Ever In Oklahoma
TTITLE14=Ad Vanderveen and The O´Neils - Well Of Wonder
EXTD=
EXTT0=
EXTT1=
EXTT2=
EXTT3=
EXTT4=
EXTT5=
EXTT6=
EXTT7=
EXTT8=
EXTT9=
EXTT10=
EXTT11=
EXTT12=
EXTT13=
EXTT14=
PLAYORDER=
